<svg width="43" height="41" viewBox="0 0 43 41" fill="none" xmlns="http://www.w3.org/2000/svg">
<path d="M13.875 0.625H31.5417V7.25H13.875V0.625ZM13.875 17.1875H35.9583V23.8125H13.875V17.1875ZM13.875 33.75H42.5833V40.375H13.875V33.75Z" fill="white" fill-opacity="0.8"/>
<path d="M2.83333 6.14585C4.05296 6.14585 5.04167 5.15715 5.04167 3.93752C5.04167 2.71789 4.05296 1.72919 2.83333 1.72919C1.6137 1.72919 0.625 2.71789 0.625 3.93752C0.625 5.15715 1.6137 6.14585 2.83333 6.14585Z" fill="white" fill-opacity="0.8"/>
<path d="M2.83333 22.7084C4.05296 22.7084 5.04167 21.7196 5.04167 20.5C5.04167 19.2804 4.05296 18.2917 2.83333 18.2917C1.6137 18.2917 0.625 19.2804 0.625 20.5C0.625 21.7196 1.6137 22.7084 2.83333 22.7084Z" fill="white" fill-opacity="0.8"/>
<path d="M2.83333 39.2709C4.05296 39.2709 5.04167 38.2821 5.04167 37.0625C5.04167 35.8429 4.05296 34.8542 2.83333 34.8542C1.6137 34.8542 0.625 35.8429 0.625 37.0625C0.625 38.2821 1.6137 39.2709 2.83333 39.2709Z" fill="white" fill-opacity="0.8"/>
</svg>
