<svg width="39" height="45" viewBox="0 0 39 45" fill="none" xmlns="http://www.w3.org/2000/svg">
<path fill-rule="evenodd" clip-rule="evenodd" d="M7.25 0.416687C6.07863 0.416687 4.95523 0.882013 4.12695 1.7103C3.29866 2.53858 2.83333 3.66198 2.83333 4.83335V7.04169C2.24765 7.04169 1.68595 7.27435 1.27181 7.68849C0.857663 8.10264 0.625 8.66433 0.625 9.25002C0.625 9.83571 0.857663 10.3974 1.27181 10.8115C1.68595 11.2257 2.24765 11.4584 2.83333 11.4584V15.875C2.24765 15.875 1.68595 16.1077 1.27181 16.5218C0.857663 16.936 0.625 17.4977 0.625 18.0834C0.625 18.669 0.857663 19.2307 1.27181 19.6449C1.68595 20.059 2.24765 20.2917 2.83333 20.2917V24.7084C2.24765 24.7084 1.68595 24.941 1.27181 25.3552C0.857663 25.7693 0.625 26.331 0.625 26.9167C0.625 27.5024 0.857663 28.0641 1.27181 28.4782C1.68595 28.8924 2.24765 29.125 2.83333 29.125V33.5417C2.24765 33.5417 1.68595 33.7743 1.27181 34.1885C0.857663 34.6026 0.625 35.1643 0.625 35.75C0.625 36.3357 0.857663 36.8974 1.27181 37.3116C1.68595 37.7257 2.24765 37.9584 2.83333 37.9584V40.1667C2.83333 41.3381 3.29866 42.4615 4.12695 43.2897C4.95523 44.118 6.07863 44.5834 7.25 44.5834H33.75C34.9214 44.5834 36.0448 44.118 36.8731 43.2897C37.7013 42.4615 38.1667 41.3381 38.1667 40.1667V4.83335C38.1667 3.66198 37.7013 2.53858 36.8731 1.7103C36.0448 0.882013 34.9214 0.416687 33.75 0.416687H7.25ZM12.7708 9.25002C11.8923 9.25002 11.0498 9.59902 10.4285 10.2202C9.80733 10.8414 9.45833 11.684 9.45833 12.5625V14.7709C9.45833 15.6494 9.80733 16.4919 10.4285 17.1131C11.0498 17.7344 11.8923 18.0834 12.7708 18.0834H28.2292C29.1077 18.0834 29.9502 17.7344 30.5715 17.1131C31.1927 16.4919 31.5417 15.6494 31.5417 14.7709V12.5625C31.5417 11.684 31.1927 10.8414 30.5715 10.2202C29.9502 9.59902 29.1077 9.25002 28.2292 9.25002H12.7708Z" fill="white" fill-opacity="0.8"/>
</svg>
