<svg width="45" height="45" viewBox="0 0 45 45" fill="none" xmlns="http://www.w3.org/2000/svg">
<path d="M44.0158 23.2309L24.1408 1.14761C23.3038 0.21569 21.6962 0.21569 20.8592 1.14761L0.984199 23.2309C0.698619 23.5483 0.511167 23.9417 0.444538 24.3634C0.377909 24.7851 0.434959 25.2171 0.608782 25.6071C0.962116 26.4043 1.7527 26.9166 2.62499 26.9166H7.04166V42.375C7.04166 42.9607 7.27432 43.5224 7.68846 43.9365C8.10261 44.3507 8.6643 44.5833 9.24999 44.5833H15.875C16.4607 44.5833 17.0224 44.3507 17.4365 43.9365C17.8507 43.5224 18.0833 42.9607 18.0833 42.375V33.5416H26.9167V42.375C26.9167 42.9607 27.1493 43.5224 27.5635 43.9365C27.9776 44.3507 28.5393 44.5833 29.125 44.5833H35.75C36.3357 44.5833 36.8974 44.3507 37.3115 43.9365C37.7257 43.5224 37.9583 42.9607 37.9583 42.375V26.9166H42.375C42.8027 26.9185 43.2216 26.7958 43.5808 26.5636C43.94 26.3315 44.2239 25.9998 44.3978 25.6091C44.5717 25.2184 44.6282 24.7855 44.5604 24.3632C44.4926 23.9409 44.3033 23.5475 44.0158 23.2309Z" fill="white" fill-opacity="0.8"/>
</svg>
